<?xml version="1.0" encoding="UTF-8" standalone="no"?>
<!DOCTYPE svg PUBLIC "-//W3C//DTD SVG 1.1//EN"
 "http://www.w3.org/Graphics/SVG/1.1/DTD/svg11.dtd">
<!-- Generated by graphviz version 5.0.0 (20220707.1540)
 -->
<!-- Title: StorageDiagram Pages: 1 -->
<svg width="2176pt" height="1744pt"
 viewBox="0.00 0.00 2176.31 1743.60" xmlns="http://www.w3.org/2000/svg" xmlns:xlink="http://www.w3.org/1999/xlink">
<g id="graph0" class="graph" transform="scale(1 1) rotate(0) translate(4 1739.6)">
<title>StorageDiagram</title>
<polygon fill="white" stroke="transparent" points="-4,4 -4,-1739.6 2172.31,-1739.6 2172.31,4 -4,4"/>
<!-- 13 -->
<g id="node1" class="node">
<title>13</title>
<polygon fill="#f2f2f2" stroke="black" points="0,-550.7 0,-1021.9 989.76,-1021.9 989.76,-550.7 0,-550.7"/>
<text text-anchor="middle" x="494.88" y="-1005.3" font-family="Courier New" font-size="14.00">BurnPool &lt;&lt;Contract&gt;&gt;</text>
<polyline fill="none" stroke="black" points="0,-997.1 989.76,-997.1 "/>
<text text-anchor="middle" x="37.4" y="-980.5" font-family="Courier New" font-size="14.00">slot</text>
<polyline fill="none" stroke="black" points="0,-972.3 74.81,-972.3 "/>
<text text-anchor="middle" x="37.4" y="-955.7" font-family="Courier New" font-size="14.00">0</text>
<polyline fill="none" stroke="black" points="0,-947.5 74.81,-947.5 "/>
<text text-anchor="middle" x="37.4" y="-930.9" font-family="Courier New" font-size="14.00">1&#45;50</text>
<polyline fill="none" stroke="black" points="0,-922.7 74.81,-922.7 "/>
<text text-anchor="middle" x="37.4" y="-906.1" font-family="Courier New" font-size="14.00">51&#45;100</text>
<polyline fill="none" stroke="black" points="0,-897.9 74.81,-897.9 "/>
<text text-anchor="middle" x="37.4" y="-881.3" font-family="Courier New" font-size="14.00">101</text>
<polyline fill="none" stroke="black" points="0,-873.1 74.81,-873.1 "/>
<text text-anchor="middle" x="37.4" y="-856.5" font-family="Courier New" font-size="14.00">102&#45;150</text>
<polyline fill="none" stroke="black" points="0,-848.3 74.81,-848.3 "/>
<text text-anchor="middle" x="37.4" y="-831.7" font-family="Courier New" font-size="14.00">151&#45;200</text>
<polyline fill="none" stroke="black" points="0,-823.5 74.81,-823.5 "/>
<text text-anchor="middle" x="37.4" y="-806.9" font-family="Courier New" font-size="14.00">201&#45;250</text>
<polyline fill="none" stroke="black" points="0,-798.7 74.81,-798.7 "/>
<text text-anchor="middle" x="37.4" y="-782.1" font-family="Courier New" font-size="14.00">251</text>
<polyline fill="none" stroke="black" points="0,-773.9 74.81,-773.9 "/>
<text text-anchor="middle" x="37.4" y="-757.3" font-family="Courier New" font-size="14.00">252&#45;300</text>
<polyline fill="none" stroke="black" points="0,-749.1 74.81,-749.1 "/>
<text text-anchor="middle" x="37.4" y="-732.5" font-family="Courier New" font-size="14.00">301</text>
<polyline fill="none" stroke="black" points="0,-724.3 74.81,-724.3 "/>
<text text-anchor="middle" x="37.4" y="-707.7" font-family="Courier New" font-size="14.00">302&#45;350</text>
<polyline fill="none" stroke="black" points="0,-699.5 74.81,-699.5 "/>
<text text-anchor="middle" x="37.4" y="-682.9" font-family="Courier New" font-size="14.00">351</text>
<polyline fill="none" stroke="black" points="0,-674.7 74.81,-674.7 "/>
<text text-anchor="middle" x="37.4" y="-658.1" font-family="Courier New" font-size="14.00">352&#45;400</text>
<polyline fill="none" stroke="black" points="0,-649.9 74.81,-649.9 "/>
<text text-anchor="middle" x="37.4" y="-633.3" font-family="Courier New" font-size="14.00">401</text>
<polyline fill="none" stroke="black" points="0,-625.1 74.81,-625.1 "/>
<text text-anchor="middle" x="37.4" y="-608.5" font-family="Courier New" font-size="14.00">402</text>
<polyline fill="none" stroke="black" points="0,-600.3 74.81,-600.3 "/>
<text text-anchor="middle" x="37.4" y="-583.7" font-family="Courier New" font-size="14.00">403</text>
<polyline fill="none" stroke="black" points="0,-575.5 74.81,-575.5 "/>
<text text-anchor="middle" x="37.4" y="-558.9" font-family="Courier New" font-size="14.00">404</text>
<polyline fill="none" stroke="black" points="74.81,-550.7 74.81,-997.1 "/>
<text text-anchor="middle" x="532.28" y="-980.5" font-family="Courier New" font-size="14.00">type: &lt;inherited contract&gt;.variable (bytes)</text>
<polyline fill="none" stroke="black" points="74.81,-972.3 989.76,-972.3 "/>
<text text-anchor="middle" x="168.02" y="-955.7" font-family="Courier New" font-size="14.00">unallocated (30)</text>
<polyline fill="none" stroke="black" points="261.23,-947.5 261.23,-972.3 "/>
<text text-anchor="middle" x="443.16" y="-955.7" font-family="Courier New" font-size="14.00">bool: Initializable._initializing (1)</text>
<polyline fill="none" stroke="black" points="625.08,-947.5 625.08,-972.3 "/>
<text text-anchor="middle" x="807.01" y="-955.7" font-family="Courier New" font-size="14.00">uint8: Initializable._initialized (1)</text>
<polyline fill="none" stroke="black" points="74.81,-947.5 989.76,-947.5 "/>
<text text-anchor="middle" x="532.04" y="-930.9" font-family="Courier New" font-size="14.00">uint256[50]: ERC1967UpgradeUpgradeable.__gap (1600)</text>
<polyline fill="none" stroke="black" points="74.81,-922.7 989.76,-922.7 "/>
<text text-anchor="middle" x="532.04" y="-906.1" font-family="Courier New" font-size="14.00">uint256[50]: UUPSUpgradeable.__gap (1600)</text>
<polyline fill="none" stroke="black" points="74.81,-897.9 989.76,-897.9 "/>
<text text-anchor="middle" x="531.94" y="-881.3" font-family="Courier New" font-size="14.00">uint256: ReentrancyGuardUpgradeable._status (32)</text>
<polyline fill="none" stroke="black" points="74.81,-873.1 989.76,-873.1 "/>
<text text-anchor="middle" x="532.25" y="-856.5" font-family="Courier New" font-size="14.00">uint256[49]: ReentrancyGuardUpgradeable.__gap (1568)</text>
<polyline fill="none" stroke="black" points="74.81,-848.3 989.76,-848.3 "/>
<text text-anchor="middle" x="532.14" y="-831.7" font-family="Courier New" font-size="14.00">uint256[50]: ContextUpgradeable.__gap (1600)</text>
<polyline fill="none" stroke="black" points="74.81,-823.5 989.76,-823.5 "/>
<text text-anchor="middle" x="531.94" y="-806.9" font-family="Courier New" font-size="14.00">uint256[50]: ERC165Upgradeable.__gap (1600)</text>
<polyline fill="none" stroke="black" points="74.81,-798.7 989.76,-798.7 "/>
<text text-anchor="middle" x="532.15" y="-782.1" font-family="Courier New" font-size="14.00">mapping(bytes32=&gt;RoleData): AccessControlUpgradeable._roles (32)</text>
<polyline fill="none" stroke="black" points="74.81,-773.9 989.76,-773.9 "/>
<text text-anchor="middle" x="531.84" y="-757.3" font-family="Courier New" font-size="14.00">uint256[49]: AccessControlUpgradeable.__gap (1568)</text>
<polyline fill="none" stroke="black" points="74.81,-749.1 989.76,-749.1 "/>
<text text-anchor="middle" x="532.28" y="-732.5" font-family="Courier New" font-size="14.00">mapping(bytes32=&gt;EnumerableSetUpgradeable.AddressSet): AccessControlEnumerableUpgradeable._roleMembers (32)</text>
<polyline fill="none" stroke="black" points="74.81,-724.3 989.76,-724.3 "/>
<text text-anchor="middle" x="531.85" y="-707.7" font-family="Courier New" font-size="14.00">uint256[49]: AccessControlEnumerableUpgradeable.__gap (1568)</text>
<polyline fill="none" stroke="black" points="74.81,-699.5 989.76,-699.5 "/>
<text text-anchor="middle" x="259.02" y="-682.9" font-family="Courier New" font-size="14.00">unallocated (31)</text>
<polyline fill="none" stroke="black" points="443.23,-674.7 443.23,-699.5 "/>
<text text-anchor="middle" x="716.16" y="-682.9" font-family="Courier New" font-size="14.00">bool: PausableUpgradeable._paused (1)</text>
<polyline fill="none" stroke="black" points="74.81,-674.7 989.76,-674.7 "/>
<text text-anchor="middle" x="531.84" y="-658.1" font-family="Courier New" font-size="14.00">uint256[49]: PausableUpgradeable.__gap (1568)</text>
<polyline fill="none" stroke="black" points="74.81,-649.9 989.76,-649.9 "/>
<text text-anchor="middle" x="265.52" y="-633.3" font-family="Courier New" font-size="14.00">unallocated (12)</text>
<polyline fill="none" stroke="black" points="456.23,-625.1 456.23,-649.9 "/>
<text text-anchor="middle" x="722.55" y="-633.3" font-family="Courier New" font-size="14.00">IPriceFeedConsumer: priceFeed (20)</text>
<polyline fill="none" stroke="black" points="74.81,-625.1 989.76,-625.1 "/>
<text text-anchor="middle" x="290.52" y="-608.5" font-family="Courier New" font-size="14.00">unallocated (12)</text>
<polyline fill="none" stroke="black" points="506.23,-600.3 506.23,-625.1 "/>
<text text-anchor="middle" x="747.65" y="-608.5" font-family="Courier New" font-size="14.00">IWeatherXM: token (20)</text>
<polyline fill="none" stroke="black" points="74.81,-600.3 989.76,-600.3 "/>
<text text-anchor="middle" x="532.13" y="-583.7" font-family="Courier New" font-size="14.00">WeatherXMData: data (32)</text>
<polyline fill="none" stroke="black" points="74.81,-575.5 989.76,-575.5 "/>
<text text-anchor="middle" x="257.02" y="-558.9" font-family="Courier New" font-size="14.00">unallocated (12)</text>
<polyline fill="none" stroke="black" points="439.23,-550.7 439.23,-575.5 "/>
<text text-anchor="middle" x="714.36" y="-558.9" font-family="Courier New" font-size="14.00">IWeatherStationXM: weatherStation (20)</text>
</g>
<!-- 1 -->
<g id="node2" class="node">
<title>1</title>
<polygon fill="#f2f2f2" stroke="black" points="1092.57,-1561.5 1092.57,-1735.1 1343.8,-1735.1 1343.8,-1561.5 1092.57,-1561.5"/>
<text text-anchor="middle" x="1218.18" y="-1718.5" font-family="Courier New" font-size="14.00">uint256[50]: __gap &lt;&lt;Array&gt;&gt;</text>
<polyline fill="none" stroke="black" points="1092.57,-1710.3 1343.8,-1710.3 "/>
<text text-anchor="middle" x="1117.37" y="-1693.7" font-family="Courier New" font-size="14.00">slot</text>
<polyline fill="none" stroke="black" points="1092.57,-1685.5 1142.17,-1685.5 "/>
<text text-anchor="middle" x="1117.37" y="-1668.9" font-family="Courier New" font-size="14.00">1</text>
<polyline fill="none" stroke="black" points="1092.57,-1660.7 1142.17,-1660.7 "/>
<text text-anchor="middle" x="1117.37" y="-1644.1" font-family="Courier New" font-size="14.00">2</text>
<polyline fill="none" stroke="black" points="1092.57,-1635.9 1142.17,-1635.9 "/>
<text text-anchor="middle" x="1117.37" y="-1619.3" font-family="Courier New" font-size="14.00">3&#45;48</text>
<polyline fill="none" stroke="black" points="1092.57,-1611.1 1142.17,-1611.1 "/>
<text text-anchor="middle" x="1117.37" y="-1594.5" font-family="Courier New" font-size="14.00">49</text>
<polyline fill="none" stroke="black" points="1092.57,-1586.3 1142.17,-1586.3 "/>
<text text-anchor="middle" x="1117.37" y="-1569.7" font-family="Courier New" font-size="14.00">50</text>
<polyline fill="none" stroke="black" points="1142.17,-1561.5 1142.17,-1710.3 "/>
<text text-anchor="middle" x="1242.59" y="-1693.7" font-family="Courier New" font-size="14.00">type: variable (bytes)</text>
<polyline fill="none" stroke="black" points="1142.17,-1685.5 1343,-1685.5 "/>
<text text-anchor="middle" x="1242.58" y="-1668.9" font-family="Courier New" font-size="14.00">uint256 (32)</text>
<polyline fill="none" stroke="black" points="1142.17,-1660.7 1343,-1660.7 "/>
<text text-anchor="middle" x="1242.58" y="-1644.1" font-family="Courier New" font-size="14.00">uint256 (32)</text>
<polyline fill="none" stroke="black" points="1142.17,-1635.9 1343,-1635.9 "/>
<text text-anchor="middle" x="1242.38" y="-1619.3" font-family="Courier New" font-size="14.00">&#45;&#45;&#45;&#45; (1472)</text>
<polyline fill="none" stroke="black" points="1142.17,-1611.1 1343,-1611.1 "/>
<text text-anchor="middle" x="1242.58" y="-1594.5" font-family="Courier New" font-size="14.00">uint256 (32)</text>
<polyline fill="none" stroke="black" points="1142.17,-1586.3 1343,-1586.3 "/>
<text text-anchor="middle" x="1242.58" y="-1569.7" font-family="Courier New" font-size="14.00">uint256 (32)</text>
</g>
<!-- 13&#45;&gt;1 -->
<g id="edge1" class="edge">
<title>13:8&#45;&gt;1</title>
<path fill="none" stroke="black" d="M989.76,-935.3C1058.32,-935.3 988.18,-1493.95 1025.76,-1551.3 1040.06,-1573.13 1060.87,-1590.28 1083.55,-1603.67"/>
<polygon fill="black" stroke="black" points="1081.9,-1606.75 1092.33,-1608.62 1085.34,-1600.66 1081.9,-1606.75"/>
</g>
<!-- 2 -->
<g id="node3" class="node">
<title>2</title>
<polygon fill="#f2f2f2" stroke="black" points="1088.77,-1368.5 1088.77,-1542.1 1347.6,-1542.1 1347.6,-1368.5 1088.77,-1368.5"/>
<text text-anchor="middle" x="1218.18" y="-1525.5" font-family="Courier New" font-size="14.00">uint256[50]: __gap &lt;&lt;Array&gt;&gt;</text>
<polyline fill="none" stroke="black" points="1088.77,-1517.3 1347.6,-1517.3 "/>
<text text-anchor="middle" x="1117.77" y="-1500.7" font-family="Courier New" font-size="14.00">slot</text>
<polyline fill="none" stroke="black" points="1088.77,-1492.5 1146.77,-1492.5 "/>
<text text-anchor="middle" x="1117.77" y="-1475.9" font-family="Courier New" font-size="14.00">51</text>
<polyline fill="none" stroke="black" points="1088.77,-1467.7 1146.77,-1467.7 "/>
<text text-anchor="middle" x="1117.77" y="-1451.1" font-family="Courier New" font-size="14.00">52</text>
<polyline fill="none" stroke="black" points="1088.77,-1442.9 1146.77,-1442.9 "/>
<text text-anchor="middle" x="1117.77" y="-1426.3" font-family="Courier New" font-size="14.00">53&#45;98</text>
<polyline fill="none" stroke="black" points="1088.77,-1418.1 1146.77,-1418.1 "/>
<text text-anchor="middle" x="1117.77" y="-1401.5" font-family="Courier New" font-size="14.00">99</text>
<polyline fill="none" stroke="black" points="1088.77,-1393.3 1146.77,-1393.3 "/>
<text text-anchor="middle" x="1117.77" y="-1376.7" font-family="Courier New" font-size="14.00">100</text>
<polyline fill="none" stroke="black" points="1146.77,-1368.5 1146.77,-1517.3 "/>
<text text-anchor="middle" x="1247.19" y="-1500.7" font-family="Courier New" font-size="14.00">type: variable (bytes)</text>
<polyline fill="none" stroke="black" points="1146.77,-1492.5 1347.6,-1492.5 "/>
<text text-anchor="middle" x="1247.18" y="-1475.9" font-family="Courier New" font-size="14.00">uint256 (32)</text>
<polyline fill="none" stroke="black" points="1146.77,-1467.7 1347.6,-1467.7 "/>
<text text-anchor="middle" x="1247.18" y="-1451.1" font-family="Courier New" font-size="14.00">uint256 (32)</text>
<polyline fill="none" stroke="black" points="1146.77,-1442.9 1347.6,-1442.9 "/>
<text text-anchor="middle" x="1246.98" y="-1426.3" font-family="Courier New" font-size="14.00">&#45;&#45;&#45;&#45; (1472)</text>
<polyline fill="none" stroke="black" points="1146.77,-1418.1 1347.6,-1418.1 "/>
<text text-anchor="middle" x="1247.18" y="-1401.5" font-family="Courier New" font-size="14.00">uint256 (32)</text>
<polyline fill="none" stroke="black" points="1146.77,-1393.3 1347.6,-1393.3 "/>
<text text-anchor="middle" x="1247.18" y="-1376.7" font-family="Courier New" font-size="14.00">uint256 (32)</text>
</g>
<!-- 13&#45;&gt;2 -->
<g id="edge2" class="edge">
<title>13:14&#45;&gt;2</title>
<path fill="none" stroke="black" d="M989.76,-910.3C1039.69,-910.3 997.93,-1316.83 1025.76,-1358.3 1039.35,-1378.56 1058.51,-1394.8 1079.51,-1407.75"/>
<polygon fill="black" stroke="black" points="1077.89,-1410.86 1088.28,-1412.92 1081.44,-1404.83 1077.89,-1410.86"/>
</g>
<!-- 3 -->
<g id="node4" class="node">
<title>3</title>
<polygon fill="#f2f2f2" stroke="black" points="1080.36,-1175.5 1080.36,-1349.1 1356,-1349.1 1356,-1175.5 1080.36,-1175.5"/>
<text text-anchor="middle" x="1218.18" y="-1332.5" font-family="Courier New" font-size="14.00">uint256[49]: __gap &lt;&lt;Array&gt;&gt;</text>
<polyline fill="none" stroke="black" points="1080.36,-1324.3 1356,-1324.3 "/>
<text text-anchor="middle" x="1117.77" y="-1307.7" font-family="Courier New" font-size="14.00">slot</text>
<polyline fill="none" stroke="black" points="1080.36,-1299.5 1155.17,-1299.5 "/>
<text text-anchor="middle" x="1117.77" y="-1282.9" font-family="Courier New" font-size="14.00">102</text>
<polyline fill="none" stroke="black" points="1080.36,-1274.7 1155.17,-1274.7 "/>
<text text-anchor="middle" x="1117.77" y="-1258.1" font-family="Courier New" font-size="14.00">103</text>
<polyline fill="none" stroke="black" points="1080.36,-1249.9 1155.17,-1249.9 "/>
<text text-anchor="middle" x="1117.77" y="-1233.3" font-family="Courier New" font-size="14.00">104&#45;148</text>
<polyline fill="none" stroke="black" points="1080.36,-1225.1 1155.17,-1225.1 "/>
<text text-anchor="middle" x="1117.77" y="-1208.5" font-family="Courier New" font-size="14.00">149</text>
<polyline fill="none" stroke="black" points="1080.36,-1200.3 1155.17,-1200.3 "/>
<text text-anchor="middle" x="1117.77" y="-1183.7" font-family="Courier New" font-size="14.00">150</text>
<polyline fill="none" stroke="black" points="1155.17,-1175.5 1155.17,-1324.3 "/>
<text text-anchor="middle" x="1255.59" y="-1307.7" font-family="Courier New" font-size="14.00">type: variable (bytes)</text>
<polyline fill="none" stroke="black" points="1155.17,-1299.5 1356,-1299.5 "/>
<text text-anchor="middle" x="1255.58" y="-1282.9" font-family="Courier New" font-size="14.00">uint256 (32)</text>
<polyline fill="none" stroke="black" points="1155.17,-1274.7 1356,-1274.7 "/>
<text text-anchor="middle" x="1255.58" y="-1258.1" font-family="Courier New" font-size="14.00">uint256 (32)</text>
<polyline fill="none" stroke="black" points="1155.17,-1249.9 1356,-1249.9 "/>
<text text-anchor="middle" x="1255.38" y="-1233.3" font-family="Courier New" font-size="14.00">&#45;&#45;&#45;&#45; (1440)</text>
<polyline fill="none" stroke="black" points="1155.17,-1225.1 1356,-1225.1 "/>
<text text-anchor="middle" x="1255.58" y="-1208.5" font-family="Courier New" font-size="14.00">uint256 (32)</text>
<polyline fill="none" stroke="black" points="1155.17,-1200.3 1356,-1200.3 "/>
<text text-anchor="middle" x="1255.58" y="-1183.7" font-family="Courier New" font-size="14.00">uint256 (32)</text>
</g>
<!-- 13&#45;&gt;3 -->
<g id="edge3" class="edge">
<title>13:21&#45;&gt;3</title>
<path fill="none" stroke="black" d="M989.76,-860.3C1058,-860.3 986.68,-1109.35 1025.76,-1165.3 1037.76,-1182.49 1053.75,-1196.82 1071.37,-1208.7"/>
<polygon fill="black" stroke="black" points="1069.85,-1211.88 1080.15,-1214.34 1073.63,-1205.99 1069.85,-1211.88"/>
</g>
<!-- 4 -->
<g id="node5" class="node">
<title>4</title>
<polygon fill="#f2f2f2" stroke="black" points="1080.36,-982.5 1080.36,-1156.1 1356,-1156.1 1356,-982.5 1080.36,-982.5"/>
<text text-anchor="middle" x="1218.18" y="-1139.5" font-family="Courier New" font-size="14.00">uint256[50]: __gap &lt;&lt;Array&gt;&gt;</text>
<polyline fill="none" stroke="black" points="1080.36,-1131.3 1356,-1131.3 "/>
<text text-anchor="middle" x="1117.77" y="-1114.7" font-family="Courier New" font-size="14.00">slot</text>
<polyline fill="none" stroke="black" points="1080.36,-1106.5 1155.17,-1106.5 "/>
<text text-anchor="middle" x="1117.77" y="-1089.9" font-family="Courier New" font-size="14.00">151</text>
<polyline fill="none" stroke="black" points="1080.36,-1081.7 1155.17,-1081.7 "/>
<text text-anchor="middle" x="1117.77" y="-1065.1" font-family="Courier New" font-size="14.00">152</text>
<polyline fill="none" stroke="black" points="1080.36,-1056.9 1155.17,-1056.9 "/>
<text text-anchor="middle" x="1117.77" y="-1040.3" font-family="Courier New" font-size="14.00">153&#45;198</text>
<polyline fill="none" stroke="black" points="1080.36,-1032.1 1155.17,-1032.1 "/>
<text text-anchor="middle" x="1117.77" y="-1015.5" font-family="Courier New" font-size="14.00">199</text>
<polyline fill="none" stroke="black" points="1080.36,-1007.3 1155.17,-1007.3 "/>
<text text-anchor="middle" x="1117.77" y="-990.7" font-family="Courier New" font-size="14.00">200</text>
<polyline fill="none" stroke="black" points="1155.17,-982.5 1155.17,-1131.3 "/>
<text text-anchor="middle" x="1255.59" y="-1114.7" font-family="Courier New" font-size="14.00">type: variable (bytes)</text>
<polyline fill="none" stroke="black" points="1155.17,-1106.5 1356,-1106.5 "/>
<text text-anchor="middle" x="1255.58" y="-1089.9" font-family="Courier New" font-size="14.00">uint256 (32)</text>
<polyline fill="none" stroke="black" points="1155.17,-1081.7 1356,-1081.7 "/>
<text text-anchor="middle" x="1255.58" y="-1065.1" font-family="Courier New" font-size="14.00">uint256 (32)</text>
<polyline fill="none" stroke="black" points="1155.17,-1056.9 1356,-1056.9 "/>
<text text-anchor="middle" x="1255.38" y="-1040.3" font-family="Courier New" font-size="14.00">&#45;&#45;&#45;&#45; (1472)</text>
<polyline fill="none" stroke="black" points="1155.17,-1032.1 1356,-1032.1 "/>
<text text-anchor="middle" x="1255.58" y="-1015.5" font-family="Courier New" font-size="14.00">uint256 (32)</text>
<polyline fill="none" stroke="black" points="1155.17,-1007.3 1356,-1007.3 "/>
<text text-anchor="middle" x="1255.58" y="-990.7" font-family="Courier New" font-size="14.00">uint256 (32)</text>
</g>
<!-- 13&#45;&gt;4 -->
<g id="edge4" class="edge">
<title>13:27&#45;&gt;4</title>
<path fill="none" stroke="black" d="M989.76,-836.3C1052.28,-836.3 986.43,-923.69 1025.76,-972.3 1038.44,-987.98 1054.33,-1001.37 1071.49,-1012.73"/>
<polygon fill="black" stroke="black" points="1069.69,-1015.73 1080,-1018.15 1073.44,-1009.83 1069.69,-1015.73"/>
</g>
<!-- 5 -->
<g id="node6" class="node">
<title>5</title>
<polygon fill="#f2f2f2" stroke="black" points="1080.36,-789.5 1080.36,-963.1 1356,-963.1 1356,-789.5 1080.36,-789.5"/>
<text text-anchor="middle" x="1218.18" y="-946.5" font-family="Courier New" font-size="14.00">uint256[50]: __gap &lt;&lt;Array&gt;&gt;</text>
<polyline fill="none" stroke="black" points="1080.36,-938.3 1356,-938.3 "/>
<text text-anchor="middle" x="1117.77" y="-921.7" font-family="Courier New" font-size="14.00">slot</text>
<polyline fill="none" stroke="black" points="1080.36,-913.5 1155.17,-913.5 "/>
<text text-anchor="middle" x="1117.77" y="-896.9" font-family="Courier New" font-size="14.00">201</text>
<polyline fill="none" stroke="black" points="1080.36,-888.7 1155.17,-888.7 "/>
<text text-anchor="middle" x="1117.77" y="-872.1" font-family="Courier New" font-size="14.00">202</text>
<polyline fill="none" stroke="black" points="1080.36,-863.9 1155.17,-863.9 "/>
<text text-anchor="middle" x="1117.77" y="-847.3" font-family="Courier New" font-size="14.00">203&#45;248</text>
<polyline fill="none" stroke="black" points="1080.36,-839.1 1155.17,-839.1 "/>
<text text-anchor="middle" x="1117.77" y="-822.5" font-family="Courier New" font-size="14.00">249</text>
<polyline fill="none" stroke="black" points="1080.36,-814.3 1155.17,-814.3 "/>
<text text-anchor="middle" x="1117.77" y="-797.7" font-family="Courier New" font-size="14.00">250</text>
<polyline fill="none" stroke="black" points="1155.17,-789.5 1155.17,-938.3 "/>
<text text-anchor="middle" x="1255.59" y="-921.7" font-family="Courier New" font-size="14.00">type: variable (bytes)</text>
<polyline fill="none" stroke="black" points="1155.17,-913.5 1356,-913.5 "/>
<text text-anchor="middle" x="1255.58" y="-896.9" font-family="Courier New" font-size="14.00">uint256 (32)</text>
<polyline fill="none" stroke="black" points="1155.17,-888.7 1356,-888.7 "/>
<text text-anchor="middle" x="1255.58" y="-872.1" font-family="Courier New" font-size="14.00">uint256 (32)</text>
<polyline fill="none" stroke="black" points="1155.17,-863.9 1356,-863.9 "/>
<text text-anchor="middle" x="1255.38" y="-847.3" font-family="Courier New" font-size="14.00">&#45;&#45;&#45;&#45; (1472)</text>
<polyline fill="none" stroke="black" points="1155.17,-839.1 1356,-839.1 "/>
<text text-anchor="middle" x="1255.58" y="-822.5" font-family="Courier New" font-size="14.00">uint256 (32)</text>
<polyline fill="none" stroke="black" points="1155.17,-814.3 1356,-814.3 "/>
<text text-anchor="middle" x="1255.58" y="-797.7" font-family="Courier New" font-size="14.00">uint256 (32)</text>
</g>
<!-- 13&#45;&gt;5 -->
<g id="edge5" class="edge">
<title>13:33&#45;&gt;5</title>
<path fill="none" stroke="black" d="M989.76,-811.3C1016.36,-811.3 1044.07,-815.46 1070.62,-821.68"/>
<polygon fill="black" stroke="black" points="1069.8,-825.09 1080.34,-824.06 1071.46,-818.29 1069.8,-825.09"/>
</g>
<!-- 6 -->
<g id="node7" class="node">
<title>6</title>
<polygon fill="#f2f2f2" stroke="black" points="1025.76,-671.7 1025.76,-770.9 1410.61,-770.9 1410.61,-671.7 1025.76,-671.7"/>
<text text-anchor="middle" x="1218.18" y="-754.3" font-family="Courier New" font-size="14.00">RoleData &lt;&lt;Struct&gt;&gt;</text>
<polyline fill="none" stroke="black" points="1025.76,-746.1 1410.61,-746.1 "/>
<text text-anchor="middle" x="1058.96" y="-729.5" font-family="Courier New" font-size="14.00">offset</text>
<polyline fill="none" stroke="black" points="1025.76,-721.3 1092.16,-721.3 "/>
<text text-anchor="middle" x="1058.96" y="-704.7" font-family="Courier New" font-size="14.00">0</text>
<polyline fill="none" stroke="black" points="1025.76,-696.5 1092.16,-696.5 "/>
<text text-anchor="middle" x="1058.96" y="-679.9" font-family="Courier New" font-size="14.00">1</text>
<polyline fill="none" stroke="black" points="1092.16,-671.7 1092.16,-746.1 "/>
<text text-anchor="middle" x="1251.39" y="-729.5" font-family="Courier New" font-size="14.00">type: variable (bytes)</text>
<polyline fill="none" stroke="black" points="1092.16,-721.3 1410.61,-721.3 "/>
<text text-anchor="middle" x="1251.39" y="-704.7" font-family="Courier New" font-size="14.00">mapping(address=&gt;bool): members (32)</text>
<polyline fill="none" stroke="black" points="1092.16,-696.5 1410.61,-696.5 "/>
<text text-anchor="middle" x="1251.28" y="-679.9" font-family="Courier New" font-size="14.00">bytes32: adminRole (32)</text>
</g>
<!-- 13&#45;&gt;6 -->
<g id="edge6" class="edge">
<title>13:36&#45;&gt;6</title>
<path fill="none" stroke="black" d="M989.76,-786.3C997.17,-786.3 1018.51,-781.13 1045.32,-773.7"/>
<polygon fill="black" stroke="black" points="1046.34,-777.05 1055.02,-770.98 1044.45,-770.31 1046.34,-777.05"/>
</g>
<!-- 7 -->
<g id="node8" class="node">
<title>7</title>
<polygon fill="#f2f2f2" stroke="black" points="1080.36,-479.5 1080.36,-653.1 1356,-653.1 1356,-479.5 1080.36,-479.5"/>
<text text-anchor="middle" x="1218.18" y="-636.5" font-family="Courier New" font-size="14.00">uint256[49]: __gap &lt;&lt;Array&gt;&gt;</text>
<polyline fill="none" stroke="black" points="1080.36,-628.3 1356,-628.3 "/>
<text text-anchor="middle" x="1117.77" y="-611.7" font-family="Courier New" font-size="14.00">slot</text>
<polyline fill="none" stroke="black" points="1080.36,-603.5 1155.17,-603.5 "/>
<text text-anchor="middle" x="1117.77" y="-586.9" font-family="Courier New" font-size="14.00">252</text>
<polyline fill="none" stroke="black" points="1080.36,-578.7 1155.17,-578.7 "/>
<text text-anchor="middle" x="1117.77" y="-562.1" font-family="Courier New" font-size="14.00">253</text>
<polyline fill="none" stroke="black" points="1080.36,-553.9 1155.17,-553.9 "/>
<text text-anchor="middle" x="1117.77" y="-537.3" font-family="Courier New" font-size="14.00">254&#45;298</text>
<polyline fill="none" stroke="black" points="1080.36,-529.1 1155.17,-529.1 "/>
<text text-anchor="middle" x="1117.77" y="-512.5" font-family="Courier New" font-size="14.00">299</text>
<polyline fill="none" stroke="black" points="1080.36,-504.3 1155.17,-504.3 "/>
<text text-anchor="middle" x="1117.77" y="-487.7" font-family="Courier New" font-size="14.00">300</text>
<polyline fill="none" stroke="black" points="1155.17,-479.5 1155.17,-628.3 "/>
<text text-anchor="middle" x="1255.59" y="-611.7" font-family="Courier New" font-size="14.00">type: variable (bytes)</text>
<polyline fill="none" stroke="black" points="1155.17,-603.5 1356,-603.5 "/>
<text text-anchor="middle" x="1255.58" y="-586.9" font-family="Courier New" font-size="14.00">uint256 (32)</text>
<polyline fill="none" stroke="black" points="1155.17,-578.7 1356,-578.7 "/>
<text text-anchor="middle" x="1255.58" y="-562.1" font-family="Courier New" font-size="14.00">uint256 (32)</text>
<polyline fill="none" stroke="black" points="1155.17,-553.9 1356,-553.9 "/>
<text text-anchor="middle" x="1255.38" y="-537.3" font-family="Courier New" font-size="14.00">&#45;&#45;&#45;&#45; (1440)</text>
<polyline fill="none" stroke="black" points="1155.17,-529.1 1356,-529.1 "/>
<text text-anchor="middle" x="1255.58" y="-512.5" font-family="Courier New" font-size="14.00">uint256 (32)</text>
<polyline fill="none" stroke="black" points="1155.17,-504.3 1356,-504.3 "/>
<text text-anchor="middle" x="1255.58" y="-487.7" font-family="Courier New" font-size="14.00">uint256 (32)</text>
</g>
<!-- 13&#45;&gt;7 -->
<g id="edge7" class="edge">
<title>13:42&#45;&gt;7</title>
<path fill="none" stroke="black" d="M989.76,-761.3C1036.57,-761.3 994.63,-697.27 1025.76,-662.3 1038.7,-647.76 1054.36,-635.15 1071.09,-624.29"/>
<polygon fill="black" stroke="black" points="1073.29,-627.03 1079.92,-618.77 1069.58,-621.1 1073.29,-627.03"/>
</g>
<!-- 10 -->
<g id="node11" class="node">
<title>10</title>
<polygon fill="#f2f2f2" stroke="black" points="1084.57,-386.1 1084.57,-460.5 1351.8,-460.5 1351.8,-386.1 1084.57,-386.1"/>
<text text-anchor="middle" x="1218.18" y="-443.9" font-family="Courier New" font-size="14.00">AddressSet &lt;&lt;Struct&gt;&gt;</text>
<polyline fill="none" stroke="black" points="1084.57,-435.7 1351.8,-435.7 "/>
<text text-anchor="middle" x="1117.77" y="-419.1" font-family="Courier New" font-size="14.00">offset</text>
<polyline fill="none" stroke="black" points="1084.57,-410.9 1150.97,-410.9 "/>
<text text-anchor="middle" x="1117.77" y="-394.3" font-family="Courier New" font-size="14.00">0&#45;1</text>
<polyline fill="none" stroke="black" points="1150.97,-386.1 1150.97,-435.7 "/>
<text text-anchor="middle" x="1251.39" y="-419.1" font-family="Courier New" font-size="14.00">type: variable (bytes)</text>
<polyline fill="none" stroke="black" points="1150.97,-410.9 1351.8,-410.9 "/>
<text text-anchor="middle" x="1251.18" y="-394.3" font-family="Courier New" font-size="14.00">Set: _inner (64)</text>
</g>
<!-- 13&#45;&gt;10 -->
<g id="edge8" class="edge">
<title>13:47&#45;&gt;10</title>
<path fill="none" stroke="black" d="M989.76,-736.3C1049.41,-736.3 985.88,-514.66 1025.76,-470.3 1039.07,-455.5 1056.21,-444.99 1074.76,-437.6"/>
<polygon fill="black" stroke="black" points="1076.09,-440.84 1084.27,-434.11 1073.68,-434.27 1076.09,-440.84"/>
</g>
<!-- 11 -->
<g id="node12" class="node">
<title>11</title>
<polygon fill="#f2f2f2" stroke="black" points="1080.36,-193.5 1080.36,-367.1 1356,-367.1 1356,-193.5 1080.36,-193.5"/>
<text text-anchor="middle" x="1218.18" y="-350.5" font-family="Courier New" font-size="14.00">uint256[49]: __gap &lt;&lt;Array&gt;&gt;</text>
<polyline fill="none" stroke="black" points="1080.36,-342.3 1356,-342.3 "/>
<text text-anchor="middle" x="1117.77" y="-325.7" font-family="Courier New" font-size="14.00">slot</text>
<polyline fill="none" stroke="black" points="1080.36,-317.5 1155.17,-317.5 "/>
<text text-anchor="middle" x="1117.77" y="-300.9" font-family="Courier New" font-size="14.00">302</text>
<polyline fill="none" stroke="black" points="1080.36,-292.7 1155.17,-292.7 "/>
<text text-anchor="middle" x="1117.77" y="-276.1" font-family="Courier New" font-size="14.00">303</text>
<polyline fill="none" stroke="black" points="1080.36,-267.9 1155.17,-267.9 "/>
<text text-anchor="middle" x="1117.77" y="-251.3" font-family="Courier New" font-size="14.00">304&#45;348</text>
<polyline fill="none" stroke="black" points="1080.36,-243.1 1155.17,-243.1 "/>
<text text-anchor="middle" x="1117.77" y="-226.5" font-family="Courier New" font-size="14.00">349</text>
<polyline fill="none" stroke="black" points="1080.36,-218.3 1155.17,-218.3 "/>
<text text-anchor="middle" x="1117.77" y="-201.7" font-family="Courier New" font-size="14.00">350</text>
<polyline fill="none" stroke="black" points="1155.17,-193.5 1155.17,-342.3 "/>
<text text-anchor="middle" x="1255.59" y="-325.7" font-family="Courier New" font-size="14.00">type: variable (bytes)</text>
<polyline fill="none" stroke="black" points="1155.17,-317.5 1356,-317.5 "/>
<text text-anchor="middle" x="1255.58" y="-300.9" font-family="Courier New" font-size="14.00">uint256 (32)</text>
<polyline fill="none" stroke="black" points="1155.17,-292.7 1356,-292.7 "/>
<text text-anchor="middle" x="1255.58" y="-276.1" font-family="Courier New" font-size="14.00">uint256 (32)</text>
<polyline fill="none" stroke="black" points="1155.17,-267.9 1356,-267.9 "/>
<text text-anchor="middle" x="1255.38" y="-251.3" font-family="Courier New" font-size="14.00">&#45;&#45;&#45;&#45; (1440)</text>
<polyline fill="none" stroke="black" points="1155.17,-243.1 1356,-243.1 "/>
<text text-anchor="middle" x="1255.58" y="-226.5" font-family="Courier New" font-size="14.00">uint256 (32)</text>
<polyline fill="none" stroke="black" points="1155.17,-218.3 1356,-218.3 "/>
<text text-anchor="middle" x="1255.58" y="-201.7" font-family="Courier New" font-size="14.00">uint256 (32)</text>
</g>
<!-- 13&#45;&gt;11 -->
<g id="edge9" class="edge">
<title>13:53&#45;&gt;11</title>
<path fill="none" stroke="black" d="M989.76,-712.3C1064.85,-712.3 982.96,-438.01 1025.76,-376.3 1037.68,-359.1 1053.62,-344.83 1071.23,-333.02"/>
<polygon fill="black" stroke="black" points="1073.45,-335.75 1079.99,-327.42 1069.68,-329.85 1073.45,-335.75"/>
</g>
<!-- 12 -->
<g id="node13" class="node">
<title>12</title>
<polygon fill="#f2f2f2" stroke="black" points="1080.36,-0.5 1080.36,-174.1 1356,-174.1 1356,-0.5 1080.36,-0.5"/>
<text text-anchor="middle" x="1218.18" y="-157.5" font-family="Courier New" font-size="14.00">uint256[49]: __gap &lt;&lt;Array&gt;&gt;</text>
<polyline fill="none" stroke="black" points="1080.36,-149.3 1356,-149.3 "/>
<text text-anchor="middle" x="1117.77" y="-132.7" font-family="Courier New" font-size="14.00">slot</text>
<polyline fill="none" stroke="black" points="1080.36,-124.5 1155.17,-124.5 "/>
<text text-anchor="middle" x="1117.77" y="-107.9" font-family="Courier New" font-size="14.00">352</text>
<polyline fill="none" stroke="black" points="1080.36,-99.7 1155.17,-99.7 "/>
<text text-anchor="middle" x="1117.77" y="-83.1" font-family="Courier New" font-size="14.00">353</text>
<polyline fill="none" stroke="black" points="1080.36,-74.9 1155.17,-74.9 "/>
<text text-anchor="middle" x="1117.77" y="-58.3" font-family="Courier New" font-size="14.00">354&#45;398</text>
<polyline fill="none" stroke="black" points="1080.36,-50.1 1155.17,-50.1 "/>
<text text-anchor="middle" x="1117.77" y="-33.5" font-family="Courier New" font-size="14.00">399</text>
<polyline fill="none" stroke="black" points="1080.36,-25.3 1155.17,-25.3 "/>
<text text-anchor="middle" x="1117.77" y="-8.7" font-family="Courier New" font-size="14.00">400</text>
<polyline fill="none" stroke="black" points="1155.17,-0.5 1155.17,-149.3 "/>
<text text-anchor="middle" x="1255.59" y="-132.7" font-family="Courier New" font-size="14.00">type: variable (bytes)</text>
<polyline fill="none" stroke="black" points="1155.17,-124.5 1356,-124.5 "/>
<text text-anchor="middle" x="1255.58" y="-107.9" font-family="Courier New" font-size="14.00">uint256 (32)</text>
<polyline fill="none" stroke="black" points="1155.17,-99.7 1356,-99.7 "/>
<text text-anchor="middle" x="1255.58" y="-83.1" font-family="Courier New" font-size="14.00">uint256 (32)</text>
<polyline fill="none" stroke="black" points="1155.17,-74.9 1356,-74.9 "/>
<text text-anchor="middle" x="1255.38" y="-58.3" font-family="Courier New" font-size="14.00">&#45;&#45;&#45;&#45; (1440)</text>
<polyline fill="none" stroke="black" points="1155.17,-50.1 1356,-50.1 "/>
<text text-anchor="middle" x="1255.58" y="-33.5" font-family="Courier New" font-size="14.00">uint256 (32)</text>
<polyline fill="none" stroke="black" points="1155.17,-25.3 1356,-25.3 "/>
<text text-anchor="middle" x="1255.58" y="-8.7" font-family="Courier New" font-size="14.00">uint256 (32)</text>
</g>
<!-- 13&#45;&gt;12 -->
<g id="edge10" class="edge">
<title>13:60&#45;&gt;12</title>
<path fill="none" stroke="black" d="M989.76,-662.3C1043.02,-662.3 996.19,-228.6 1025.76,-184.3 1037.49,-166.72 1053.42,-152.17 1071.11,-140.17"/>
<polygon fill="black" stroke="black" points="1073.42,-142.85 1079.92,-134.48 1069.62,-136.96 1073.42,-142.85"/>
</g>
<!-- 8 -->
<g id="node9" class="node">
<title>8</title>
<polygon fill="#f2f2f2" stroke="black" points="1901.08,-349.1 1901.08,-423.5 2168.31,-423.5 2168.31,-349.1 1901.08,-349.1"/>
<text text-anchor="middle" x="2034.7" y="-406.9" font-family="Courier New" font-size="14.00">bytes32[]: _values &lt;&lt;Array&gt;&gt;</text>
<polyline fill="none" stroke="black" points="1901.08,-398.7 2168.31,-398.7 "/>
<text text-anchor="middle" x="1934.28" y="-382.1" font-family="Courier New" font-size="14.00">offset</text>
<polyline fill="none" stroke="black" points="1901.08,-373.9 1967.48,-373.9 "/>
<text text-anchor="middle" x="1934.28" y="-357.3" font-family="Courier New" font-size="14.00">0</text>
<polyline fill="none" stroke="black" points="1967.48,-349.1 1967.48,-398.7 "/>
<text text-anchor="middle" x="2067.9" y="-382.1" font-family="Courier New" font-size="14.00">type: variable (bytes)</text>
<polyline fill="none" stroke="black" points="1967.48,-373.9 2168.31,-373.9 "/>
<text text-anchor="middle" x="2067.89" y="-357.3" font-family="Courier New" font-size="14.00">bytes32 (32)</text>
</g>
<!-- 9 -->
<g id="node10" class="node">
<title>9</title>
<polygon fill="#f2f2f2" stroke="black" points="1446.61,-348.7 1446.61,-447.9 1865.08,-447.9 1865.08,-348.7 1446.61,-348.7"/>
<text text-anchor="middle" x="1655.84" y="-431.3" font-family="Courier New" font-size="14.00">Set &lt;&lt;Struct&gt;&gt;</text>
<polyline fill="none" stroke="black" points="1446.61,-423.1 1865.08,-423.1 "/>
<text text-anchor="middle" x="1479.82" y="-406.5" font-family="Courier New" font-size="14.00">offset</text>
<polyline fill="none" stroke="black" points="1446.61,-398.3 1513.02,-398.3 "/>
<text text-anchor="middle" x="1479.82" y="-381.7" font-family="Courier New" font-size="14.00">0</text>
<polyline fill="none" stroke="black" points="1446.61,-373.5 1513.02,-373.5 "/>
<text text-anchor="middle" x="1479.82" y="-356.9" font-family="Courier New" font-size="14.00">1</text>
<polyline fill="none" stroke="black" points="1513.02,-348.7 1513.02,-423.1 "/>
<text text-anchor="middle" x="1689.05" y="-406.5" font-family="Courier New" font-size="14.00">type: variable (bytes)</text>
<polyline fill="none" stroke="black" points="1513.02,-398.3 1865.08,-398.3 "/>
<text text-anchor="middle" x="1688.64" y="-381.7" font-family="Courier New" font-size="14.00">bytes32[]: _values (32)</text>
<polyline fill="none" stroke="black" points="1513.02,-373.5 1865.08,-373.5 "/>
<text text-anchor="middle" x="1689.05" y="-356.9" font-family="Courier New" font-size="14.00">mapping(bytes32=&gt;uint256): _indexes (32)</text>
</g>
<!-- 9&#45;&gt;8 -->
<g id="edge11" class="edge">
<title>9:44&#45;&gt;8</title>
<path fill="none" stroke="black" d="M1864.84,-386.3C1873.36,-386.3 1882.13,-386.3 1890.96,-386.3"/>
<polygon fill="black" stroke="black" points="1890.97,-389.8 1900.97,-386.3 1890.97,-382.8 1890.97,-389.8"/>
</g>
<!-- 10&#45;&gt;9 -->
<g id="edge12" class="edge">
<title>10:46&#45;&gt;9</title>
<path fill="none" stroke="black" d="M1352.18,-398.3C1379.45,-398.3 1408.09,-398.3 1436.43,-398.3"/>
<polygon fill="black" stroke="black" points="1436.45,-401.8 1446.45,-398.3 1436.45,-394.8 1436.45,-401.8"/>
</g>
</g>
</svg>
